<?xml version="1.0" encoding="UTF-8"?>
<!DOCTYPE svg PUBLIC "-//W3C//DTD SVG 1.1//EN" "http://www.w3.org/Graphics/SVG/1.1/DTD/svg11.dtd">
<!-- Creator: CorelDRAW X7 -->
<svg xmlns="http://www.w3.org/2000/svg" xml:space="preserve" width="127mm" height="50mm" version="1.1" style="shape-rendering:geometricPrecision; text-rendering:geometricPrecision; image-rendering:optimizeQuality; fill-rule:evenodd; clip-rule:evenodd"
viewBox="0 0 12700 5000"
 xmlns:xlink="http://www.w3.org/1999/xlink">
 <defs>
  <style type="text/css">
   <![CDATA[
    .fil0 {fill:#068440;fill-rule:nonzero}
   ]]>
  </style>
 </defs>
 <g id="Layer_x0020_1">
  <metadata id="CorelCorpID_0Corel-Layer"/>
  <path class="fil0" d="M226 3330l0 -1393 451 0c171,0 283,7 335,21 79,21 147,66 200,136 54,70 81,161 81,271 0,86 -15,158 -47,216 -31,58 -70,104 -118,137 -48,33 -96,56 -146,66 -67,14 -164,20 -291,20l-184 0 0 526 -281 0zm281 -1157l0 395 154 0c111,0 185,-8 223,-22 37,-15 66,-37 87,-69 22,-31 32,-67 32,-108 0,-50 -15,-92 -45,-125 -29,-33 -67,-54 -112,-62 -34,-6 -102,-9 -203,-9l-136 0zm2102 1157l-306 0 -122 -317 -556 0 -115 317 -299 0 543 -1393 297 0 558 1393zm-518 -551l-192 -517 -188 517 380 0zm1590 551l-387 -1027 -393 1027 -282 0 538 -1398 270 0 538 1398 -284 0zm370 -688c0,-142 22,-261 64,-358 32,-70 75,-134 130,-191 55,-56 115,-97 180,-125 87,-37 187,-55 300,-55 205,0 369,64 493,191 123,127 185,304 185,531 0,225 -62,401 -184,528 -122,127 -286,190 -490,190 -207,0 -372,-63 -494,-189 -123,-126 -184,-301 -184,-522zm290 -10c0,158 37,278 109,359 73,82 166,122 278,122 112,0 204,-40 276,-121 72,-81 108,-202 108,-363 0,-160 -35,-279 -105,-358 -70,-78 -163,-118 -279,-118 -116,0 -210,40 -281,120 -70,79 -106,199 -106,359zm1277 698l0 -1393 421 0 253 950 250 -950 421 0 0 1393 -261 0 0 -1097 -276 1097 -271 0 -276 -1097 0 1097 -261 0zm1625 0l0 -1393 1033 0 0 236 -752 0 0 308 699 0 0 235 -699 0 0 379 778 0 0 235 -1059 0zm1301 0l0 -1393 282 0 0 618 568 -618 378 0 -524 542 553 851 -364 0 -383 -654 -228 233 0 421 -282 0zm2293 -512l273 86c-42,152 -111,265 -209,339 -97,73 -220,110 -370,110 -185,0 -337,-63 -456,-189 -119,-126 -178,-299 -178,-518 0,-232 60,-412 179,-541 120,-128 277,-192 472,-192 171,0 309,50 416,151 63,60 110,145 142,257l-278 66c-17,-72 -51,-129 -104,-171 -52,-42 -115,-63 -190,-63 -103,0 -187,37 -251,112 -64,74 -97,194 -97,360 0,176 32,301 95,376 64,75 146,112 247,112 75,0 139,-24 193,-71 54,-48 93,-122 116,-224zm1273 -1171c62,0 122,15 180,46 57,31 102,76 135,135 32,58 49,119 49,182 0,64 -16,124 -48,181 -33,58 -77,103 -135,135 -57,32 -118,48 -181,48 -63,0 -124,-16 -181,-48 -58,-32 -103,-77 -135,-135 -32,-57 -48,-117 -48,-181 0,-63 16,-124 49,-182 33,-59 78,-104 135,-135 58,-31 118,-46 180,-46zm0 71c-50,0 -98,12 -143,37 -46,25 -83,61 -109,108 -27,47 -40,96 -40,147 0,51 13,100 39,146 26,46 62,82 108,108 46,26 95,39 145,39 52,0 100,-13 146,-39 46,-26 82,-62 108,-108 26,-46 39,-95 39,-146 0,-51 -13,-100 -40,-147 -26,-47 -62,-83 -108,-108 -46,-25 -94,-37 -145,-37zm-164 487l0 -386 78 0c73,0 114,0 124,1 26,2 46,7 60,15 14,8 26,21 36,37 10,17 14,35 14,56 0,28 -9,51 -27,71 -18,20 -44,32 -76,37 11,4 20,9 27,14 6,6 15,16 26,30 2,4 12,20 28,47l46 78 -97 0 -32 -63c-22,-42 -40,-68 -54,-79 -15,-11 -33,-17 -55,-17l-20 0 0 159 -78 0zm78 -220l32 0c45,0 73,-1 84,-5 11,-3 20,-9 26,-18 6,-9 9,-18 9,-30 0,-10 -2,-20 -9,-28 -6,-9 -15,-15 -26,-18 -12,-4 -39,-6 -84,-6l-32 0 0 105z"/>
 </g>
</svg>
