<?xml version="1.0" encoding="UTF-8"?>
<!DOCTYPE svg PUBLIC "-//W3C//DTD SVG 1.1//EN" "http://www.w3.org/Graphics/SVG/1.1/DTD/svg11.dtd">
<!-- Creator: CorelDRAW X7 -->
<svg xmlns="http://www.w3.org/2000/svg" xml:space="preserve" width="100mm" height="100mm" version="1.1"
     style="shape-rendering:geometricPrecision; text-rendering:geometricPrecision; image-rendering:optimizeQuality; fill-rule:evenodd; clip-rule:evenodd"
     viewBox="0 0 10000 10000"
>
 <defs>
  <style type="text/css">
   <![CDATA[
    .fil0 {fill:#068440}
   ]]>
  </style>
 </defs>
 <g id="Layer_x0020_1">
  <metadata id="CorelCorpID_0Corel-Layer"/>
  <path class="fil0" d="M4492 721c-417,80 -813,221 -1179,411 11,115 17,232 17,349 0,857 -313,1642 -832,2248l2300 0 1350 -1393 462 200 475 -513c-519,-310 -1123,-488 -1769,-488 -427,0 -837,79 -1216,222l0 -197c127,-45 259,-84 392,-115l0 -724zm170 8588c213,32 432,49 654,49 2401,0 4358,-1957 4358,-4358 0,-2400 -1957,-4358 -4358,-4358 -222,0 -441,17 -654,50l0 717c213,-38 431,-58 654,-58 2011,0 3650,1639 3650,3649 0,2010 -1639,3650 -3650,3650 -223,0 -441,-21 -654,-60l0 719zm-1349 -442c366,192 762,331 1179,412l0 -724c-133,-31 -265,-70 -392,-115l0 -197c379,143 789,221 1216,221 646,0 1250,-178 1769,-487l-475 -513 -462 200 -1350 -1394 -2300 0c519,606 832,1392 832,2248 0,118 -6,234 -17,349zm-970 -2766l2429 0 678 -1016 -5124 0c786,105 1489,474 2017,1016zm3107 -1186l-678 -1016 -2429 0c-528,542 -1232,911 -2017,1016l5124 0z"/>
 </g>
</svg>
