<?xml version="1.0" encoding="UTF-8"?>
<!DOCTYPE svg PUBLIC "-//W3C//DTD SVG 1.1//EN" "http://www.w3.org/Graphics/SVG/1.1/DTD/svg11.dtd">
<!-- Creator: CorelDRAW X7 -->
<svg xmlns="http://www.w3.org/2000/svg" xml:space="preserve" width="127mm" height="50mm" version="1.1"
     style="shape-rendering:geometricPrecision; text-rendering:geometricPrecision; image-rendering:optimizeQuality; fill-rule:evenodd; clip-rule:evenodd"
     viewBox="0 0 12700 5000"
>
 <defs>
  <style type="text/css">
   <![CDATA[
    .fil0 {fill:#068440;fill-rule:nonzero}
   ]]>
  </style>
 </defs>
 <g id="Layer_x0020_1">
  <metadata id="CorelCorpID_0Corel-Layer"/>
  <path class="fil0" d="M305 3360l0 -1444 613 0c155,0 267,13 337,39 70,26 126,72 168,138 42,67 63,143 63,228 0,108 -32,198 -96,269 -63,70 -159,115 -286,133 64,37 116,77 157,121 41,44 96,122 166,235l176 281 -349 0 -210 -314c-75,-112 -127,-183 -154,-212 -28,-30 -57,-49 -88,-60 -31,-11 -80,-17 -147,-17l-59 0 0 603 -291 0zm291 -833l216 0c140,0 227,-6 262,-18 35,-12 62,-32 82,-61 19,-29 29,-65 29,-108 0,-49 -13,-88 -39,-118 -25,-30 -62,-49 -109,-57 -24,-3 -95,-4 -213,-4l-228 0 0 366zm2607 833l-317 0 -126 -328 -578 0 -119 328 -309 0 562 -1444 309 0 578 1444zm-537 -571l-199 -536 -195 536 394 0zm840 571l0 -1432 291 0 0 1189 725 0 0 243 -1016 0zm1305 -713c0,-147 22,-271 66,-370 33,-74 78,-140 135,-198 56,-59 119,-102 186,-130 90,-39 194,-57 312,-57 212,0 383,65 510,198 128,131 192,315 192,550 0,233 -64,416 -190,547 -127,132 -297,198 -508,198 -215,0 -386,-66 -513,-197 -127,-131 -190,-311 -190,-541zm300 -10c0,164 38,288 114,372 75,85 171,127 288,127 116,0 211,-42 286,-126 74,-84 111,-209 111,-377 0,-165 -36,-289 -108,-370 -73,-82 -169,-122 -289,-122 -121,0 -218,41 -291,123 -74,83 -111,207 -111,373zm1465 723l0 -1444 436 0 262 985 259 -985 437 0 0 1444 -270 0 0 -1137 -287 1137 -281 0 -286 -1137 0 1137 -270 0zm1824 0l0 -1444 1071 0 0 245 -779 0 0 320 725 0 0 243 -725 0 0 393 807 0 0 243 -1099 0zm1339 0l494 -753 -447 -691 340 0 290 464 284 -464 337 0 -449 702 494 742 -352 0 -320 -499 -321 499 -350 0zm2279 -1745c65,0 127,16 187,49 59,32 105,78 139,139 34,60 51,123 51,189 0,66 -16,129 -50,188 -33,60 -79,106 -139,140 -60,33 -122,50 -188,50 -65,0 -128,-17 -188,-50 -59,-34 -106,-80 -139,-140 -34,-59 -50,-122 -50,-188 0,-66 17,-129 51,-189 34,-61 80,-107 140,-139 59,-33 122,-49 186,-49zm1 74c-52,0 -102,13 -149,39 -48,26 -86,63 -113,112 -28,48 -41,99 -41,152 0,53 13,104 40,151 27,49 64,86 112,113 48,27 98,40 151,40 53,0 103,-13 151,-40 47,-27 85,-64 112,-113 27,-47 40,-98 40,-151 0,-53 -14,-104 -41,-152 -27,-49 -65,-86 -113,-112 -48,-26 -97,-39 -149,-39zm-171 505l0 -400 81 0c76,0 119,0 128,1 27,2 48,7 63,16 15,8 27,21 37,38 10,17 15,37 15,58 0,29 -9,53 -28,74 -19,20 -45,33 -79,38 12,4 21,9 28,15 6,6 15,16 27,31 2,4 13,20 29,49l47 80 -100 0 -33 -65c-23,-43 -42,-71 -57,-82 -14,-11 -33,-17 -56,-17l-21 0 0 164 -81 0zm81 -227l33 0c47,0 76,-2 88,-6 11,-3 20,-10 26,-19 7,-9 10,-19 10,-31 0,-11 -3,-20 -10,-29 -6,-9 -15,-15 -27,-19 -12,-4 -41,-6 -87,-6l-33 0 0 110z"/>
 </g>
</svg>
