<?xml version="1.0" standalone="no"?>
<!DOCTYPE svg PUBLIC "-//W3C//DTD SVG 20010904//EN"
 "http://www.w3.org/TR/2001/REC-SVG-20010904/DTD/svg10.dtd">
<svg version="1.0" xmlns="http://www.w3.org/2000/svg"
 width="512.000000pt" height="512.000000pt" viewBox="0 0 512.000000 512.000000"
 preserveAspectRatio="xMidYMid meet">

<g transform="translate(0.000000,512.000000) scale(0.100000,-0.100000)"
fill="#000000" stroke="none">
<path d="M1153 4820 c-59 -12 -118 -45 -163 -90 -189 -189 -82 -517 182 -559
48 -8 153 1 166 13 3 3 21 -9 40 -26 57 -49 114 -70 183 -66 47 2 59 0 59 -12
1 -34 41 -101 72 -120 26 -17 45 -20 96 -18 56 4 66 8 98 39 83 83 52 228 -55
260 l-39 11 6 64 c6 78 -15 139 -65 195 -35 38 -120 79 -166 79 -17 0 -28 12
-46 50 -63 133 -222 211 -368 180z"/>
<path d="M1672 3813 c-64 -31 -77 -63 -80 -200 l-4 -123 322 0 322 0 -3 118
c-4 113 -5 120 -33 156 -46 61 -69 66 -293 66 -162 0 -204 -3 -231 -17z"/>
<path d="M1590 3186 l0 -164 -307 -4 c-359 -4 -301 13 -553 -158 -200 -136
-236 -168 -255 -234 -21 -71 -22 -976 -1 -976 24 0 363 118 499 174 170 70
359 158 852 399 427 208 641 303 877 388 l148 54 0 125 c0 106 -3 130 -20 157
-40 66 -46 68 -337 71 l-263 3 0 165 0 164 -320 0 -320 0 0 -164z"/>
<path d="M4860 2909 c-815 -64 -1386 -171 -1978 -373 -329 -113 -570 -217
-1147 -501 -409 -201 -592 -285 -785 -360 -176 -68 -411 -145 -580 -190 -278
-73 -326 -100 -355 -198 -36 -122 1 -436 63 -537 37 -60 100 -106 164 -119 29
-7 1002 -86 2162 -176 l2109 -165 46 22 c54 28 81 74 81 140 0 43 -9 60 -112
215 -149 225 -148 209 -27 413 283 477 512 1072 599 1559 34 190 25 237 -46
267 -36 15 -38 15 -194 3z m-932 -726 c76 -61 80 -157 11 -226 l-39 -39 0
-249 c0 -137 2 -249 5 -249 3 0 23 9 44 20 71 36 131 127 131 199 0 25 17 62
34 73 19 13 64 9 80 -8 20 -20 21 -93 2 -155 -31 -101 -105 -185 -206 -233
-58 -28 -75 -31 -155 -31 -80 0 -97 3 -157 32 -118 56 -194 156 -219 286 -14
78 6 117 62 117 36 0 56 -26 68 -92 13 -71 29 -104 73 -144 29 -28 87 -64 103
-64 3 0 5 112 5 249 l0 250 -29 20 c-55 39 -78 130 -47 189 48 92 156 118 234
55z"/>
</g>
</svg>
